<?xml version="1.0" encoding="utf-8"?>
<!-- Generator: Adobe Illustrator 22.0.1, SVG Export Plug-In . SVG Version: 6.00 Build 0)  -->
<svg version="1.1" id="Calque_1" xmlns="http://www.w3.org/2000/svg" xmlns:xlink="http://www.w3.org/1999/xlink" x="0px" y="0px"
	 viewBox="0 0 643 151.7" style="enable-background:new 0 0 643 151.7;" xml:space="preserve">
<style type="text/css">
	.st0{fill:#FFFFFF;}
	.st1{fill:#5872BA;}
	.st2{fill:#F99820;}
	.st3{fill:#EC5D50;}
</style>
<g>
	<path class="st0" d="M248,114.2c0,1.3-0.5,2.6-1.6,3.6c-1.1,1.1-2.4,1.6-3.9,1.6c-1.6,0-2.9-0.5-3.9-1.6c-1.1-1.1-1.6-2.3-1.6-3.6
		V53.1c0-1.5,0.6-2.8,1.8-4.1c1.2-1.2,2.7-1.9,4.5-1.9h27.4c1.6,0,2.9,0.5,3.9,1.6c1.1,1,1.6,2.3,1.6,3.7c0,1.5-0.5,2.7-1.6,3.6
		c-1.1,0.9-2.4,1.4-3.9,1.4H248v20h20.6c1.3,0,2.6,0.5,3.7,1.5c1.1,1,1.7,2.2,1.7,3.7c0,1.5-0.5,2.7-1.6,3.7c-1,1-2.3,1.5-3.9,1.5
		H248V114.2z"/>
	<path class="st0" d="M309.2,77c-1.1,0-2.1,0-3,0c-0.9,0-1.8,0.1-2.6,0.2c-0.8,0.1-1.7,0.4-2.6,0.7c-0.9,0.3-1.9,0.8-3,1.4
		c0.1,0.5,0.1,0.9,0.2,1.3c0,0.4,0.1,0.7,0.1,1.1V114c0,1.5-0.5,2.7-1.6,3.7c-1,1-2.3,1.5-3.9,1.5c-1.6,0-2.8-0.5-3.9-1.5
		c-1-1-1.6-2.2-1.6-3.7V81.7c0-1.4-0.1-2.6-0.3-3.4c-0.2-0.9-0.6-1.7-1.1-2.4c-0.3-0.4-0.6-0.8-0.8-1.2c-0.2-0.4-0.3-0.9-0.3-1.5
		c0-1.4,0.5-2.6,1.6-3.4c1-0.9,2.3-1.3,3.7-1.3c0.9,0,1.8,0.3,2.6,0.8c0.8,0.5,1.5,1.2,2.1,2.1c2.3-1.3,4.6-2.4,7-3.2
		c2.4-0.8,4.5-1.2,6.2-1.2c2.6,0,4.3,0.5,5.3,1.4c1,0.9,1.5,2.1,1.5,3.5c0,1.6-0.5,2.9-1.6,3.9C312.1,76.7,310.7,77.2,309.2,77z"/>
	<path class="st0" d="M341.1,119.2c-3.4,0-6.3-0.5-8.8-1.4c-2.5-0.9-4.7-2.2-6.4-3.9c-1.7-1.7-3-3.6-3.9-5.9
		c-0.9-2.3-1.3-4.7-1.3-7.2v-16c0-2.6,0.4-5.1,1.3-7.3c0.9-2.2,2.2-4.2,3.9-5.8c1.7-1.7,3.8-2.9,6.4-3.9c2.5-0.9,5.5-1.4,8.8-1.4
		c3.3,0,6.2,0.5,8.8,1.4c2.6,0.9,4.7,2.2,6.4,3.9c1.7,1.7,3,3.6,3.9,5.8c0.9,2.2,1.3,4.7,1.3,7.3v16c0,2.6-0.4,5-1.3,7.2
		c-0.9,2.3-2.2,4.2-3.9,5.9c-1.7,1.7-3.9,3-6.4,3.9C347.4,118.7,344.4,119.2,341.1,119.2z M341.1,109.6c3.2,0,5.5-0.8,7.1-2.3
		c1.6-1.5,2.4-3.7,2.4-6.5V84.7c0-2.7-0.8-4.8-2.4-6.4c-1.6-1.5-4-2.3-7.1-2.3c-3.2,0-5.5,0.8-7.1,2.3c-1.6,1.6-2.4,3.7-2.4,6.4
		v16.1c0,2.8,0.8,4.9,2.4,6.5C335.6,108.8,338,109.6,341.1,109.6z"/>
	<path class="st0" d="M384.3,114c0,1.4-0.5,2.6-1.4,3.6c-0.9,1-2.3,1.5-4.1,1.5s-3.2-0.5-4.1-1.5c-0.9-1-1.4-2.2-1.4-3.6V81.6
		c0-1.1,0-1.9-0.1-2.6c-0.1-0.6-0.2-1.1-0.3-1.5c-0.1-0.4-0.3-0.7-0.5-0.9c-0.2-0.2-0.3-0.4-0.5-0.7c-0.4-0.6-0.7-1.1-0.9-1.5
		c-0.2-0.4-0.3-0.9-0.3-1.5c0-1.3,0.5-2.5,1.5-3.3c1-0.9,2.2-1.3,3.8-1.3c1.9,0,3.5,1,4.8,2.9c2.3-1.6,4.6-2.7,7-3.4
		c2.4-0.7,4.7-1.1,6.9-1.1c5.9,0,10.3,1.8,13.2,5.4c2.9,3.6,4.4,8.3,4.4,14.1V114c0,1.4-0.5,2.6-1.4,3.6c-0.9,1-2.3,1.5-4,1.5
		c-1.8,0-3.1-0.5-4-1.5c-0.9-1-1.4-2.2-1.4-3.6V86.1c0-3.2-0.7-5.7-2.1-7.5c-1.4-1.8-3.4-2.6-5.9-2.6c-2.9,0-6.1,1-9.5,3.1
		c0.2,0.9,0.3,1.8,0.3,2.4V114z"/>
	<path class="st0" d="M426.6,56.9c0-1.4,0.5-2.6,1.4-3.6c0.9-1,2.3-1.5,4-1.5c1.8,0,3.1,0.5,4,1.5c0.9,1,1.4,2.2,1.4,3.5v12.5h9
		c1.4,0,2.6,0.5,3.6,1.4c1,0.9,1.5,2.1,1.5,3.5c0,1.3-0.5,2.5-1.5,3.4c-1,0.9-2.2,1.4-3.6,1.4h-9V97c0,2.2,0.1,4.1,0.2,5.7
		c0.1,1.6,0.5,2.8,1,3.7c0.5,0.9,1.2,1.6,2.1,2.1c0.9,0.4,2.1,0.7,3.6,0.7c0.3,0,0.7,0,1-0.1c0.3,0,0.6-0.1,0.8-0.1
		c2.2,0,3.8,0.3,5,1c1.2,0.6,1.8,1.8,1.8,3.6c0,1.1-0.2,2.1-0.7,2.8c-0.4,0.7-1,1.2-1.8,1.6c-0.7,0.4-1.6,0.6-2.5,0.7
		c-0.9,0.1-1.9,0.2-2.9,0.2c-3.7,0-6.8-0.5-9.2-1.4c-2.4-0.9-4.3-2.2-5.7-4c-1.4-1.8-2.4-4-2.9-6.6c-0.5-2.7-0.8-5.7-0.8-9.2V56.9z"
		/>
	<path class="st0" d="M488.2,88.4c0,1.3-0.5,2.5-1.5,3.4c-1,0.9-2.2,1.4-3.6,1.4h-25.2c-1.6,0-2.8-0.5-3.8-1.4
		c-1-0.9-1.5-2.1-1.5-3.4c0-1.3,0.5-2.5,1.5-3.5c1-1,2.2-1.5,3.8-1.5H483c1.4,0,2.6,0.5,3.6,1.5C487.7,85.8,488.2,87,488.2,88.4z"/>
	<path class="st0" d="M538.5,113.2c0,1.5-0.5,2.7-1.6,3.7c-1,1-2.3,1.5-3.8,1.5h-28.5c-1.6,0-3-0.6-4.2-1.7
		c-1.2-1.1-1.8-2.5-1.8-4.1V51.4c0-1.4,0.5-2.6,1.6-3.7c1.1-1,2.4-1.6,3.9-1.6c1.6,0,2.9,0.5,3.9,1.6c1.1,1,1.6,2.3,1.6,3.7v56.7
		h23.5c1.4,0,2.7,0.5,3.7,1.5C537.9,110.6,538.5,111.8,538.5,113.2z"/>
	<path class="st0" d="M572.7,84.7c0-5.9-3.1-8.9-9.3-8.9c-1.3,0-2.5,0.1-3.3,0.4c-0.9,0.3-1.8,0.6-2.6,0.9l-1.9,0.8
		c-0.7,0.3-1.6,0.5-2.6,0.5c-1.5,0-2.5-0.5-3.2-1.4c-0.6-0.9-1-2-1-3c0-1.3,0.4-2.5,1.3-3.4c0.9-0.9,2.1-1.7,3.5-2.3
		c1.5-0.6,3.2-1,5.1-1.3c1.9-0.3,3.8-0.4,5.8-0.4c6.9,0,11.8,1.8,14.8,5.3c3,3.5,4.5,8.6,4.5,15.4v20.5c0,1.3,0.2,2.1,0.7,2.5
		c0.5,0.4,1.1,0.6,1.8,0.8c2,0.4,3,1.6,3,3.6c0,2.8-2,4.2-6,4.2c-3.5,0-6.2-1.5-8.1-4.6c-3.8,3.2-8.4,4.9-13.8,4.9
		c-5.5,0-9.7-1.4-12.5-4.2c-2.8-2.8-4.2-6.6-4.2-11.3v-0.3C544.7,93,551,88,563.6,88c3.1,0,6.1,0.4,9.1,1.2V84.7z M563.9,96.2
		c-1.8,0-3.2,0.2-4.3,0.6c-1.1,0.4-2,0.9-2.6,1.5c-0.6,0.6-1,1.4-1.2,2.3c-0.2,0.9-0.3,1.8-0.3,2.7v0.3c0,2,0.6,3.6,1.7,4.7
		c1.1,1.1,3.1,1.7,5.9,1.7c1.8,0,3.4-0.3,5-0.8c1.5-0.5,3.1-1.4,4.7-2.7v-9.1c-1.5-0.3-3-0.6-4.6-0.8
		C566.6,96.4,565.2,96.2,563.9,96.2z"/>
	<path class="st0" d="M598.4,50.2c0-1.3,0.5-2.5,1.4-3.5c0.9-1,2.3-1.5,4-1.5c1.8,0,3.1,0.5,4,1.5c0.9,1,1.4,2.1,1.4,3.5V70
		c1.8-1.1,3.6-2,5.5-2.6c1.9-0.6,4.2-0.9,6.7-0.9c3,0,5.6,0.4,7.7,1.3c2.1,0.8,3.9,2,5.3,3.4c1.4,1.5,2.4,3.2,3,5.2
		c0.6,2,0.9,4.1,0.9,6.4v18c0,2.6-0.4,5-1.3,7.2c-0.8,2.3-2.1,4.2-3.7,5.9c-1.7,1.7-3.7,3-6.3,3.9c-2.5,0.9-5.4,1.4-8.7,1.4
		c-3.2,0-6-0.4-8.5-1.3c-2.5-0.8-4.6-2-6.3-3.5c-1.7-1.5-3-3.2-3.9-5.3c-0.9-2-1.3-4.2-1.3-6.5V50.2z M609.4,102.7
		c0,2.3,0.8,4.1,2.4,5.4s3.8,2,6.7,2c3.1,0,5.4-0.8,6.9-2.3c1.5-1.6,2.2-3.7,2.2-6.5V82.5c0-2.3-0.7-4.1-2-5.4
		c-1.3-1.3-3.5-1.9-6.4-1.9c-4,0-7.3,1.3-9.8,3.9V102.7z"/>
</g>
<g>
	<path class="st1" d="M138.9,148.4H54.7c-6.5,0-12.6-3.5-15.9-9.1c-3.3-5.6-3.5-12.6-0.4-18.3l32-59.1V27.1c0-5.4,4.4-9.8,9.9-9.8
		h33.1c5.5,0,9.9,4.4,9.9,9.8v34.8l32,59.1c3.1,5.7,2.9,12.7-0.4,18.3C151.5,144.9,145.4,148.4,138.9,148.4z M80.3,24.8
		c-1.3,0-2.4,1-2.4,2.3v36.7L45,124.6c-1.8,3.4-1.7,7.6,0.2,10.9c2,3.3,5.6,5.4,9.4,5.4h84.2c3.9,0,7.5-2.1,9.5-5.4
		c2-3.3,2.1-7.5,0.2-10.9l0,0l-32.9-60.8V27.1c0-1.2-1.1-2.3-2.4-2.3H80.3z"/>
	<path class="st0" d="M79.8,24.8c-1.3,0-2.4,1-2.4,2.3v36.7l-32.9,60.8c-1.8,3.4-1.7,7.6,0.2,10.9c2,3.3,5.6,5.4,9.4,5.4h84.2
		c3.9,0,7.5-2.1,9.5-5.4c2-3.3,2.1-7.5,0.2-10.9l0,0l-32.9-60.8V27.1c0-1.2-1.1-2.3-2.4-2.3H79.8z"/>
	<path class="st1" d="M138.2,130.2c-1.2,2-3.3,3.1-5.5,3.1H60.4c-2.3,0-4.4-1.2-5.5-3.1c-1.2-1.9-1.2-4.4-0.1-6.3l8.7-15.6
		c1.2-2.2,3.7-3.5,6.2-3.3c11.5,1.1,24.5,11,36.1,10.5c6.2-0.2,12-2.5,17.5-5.5c3.1-1.7,7-0.6,8.7,2.5l6.3,11.4
		C139.4,125.8,139.4,128.2,138.2,130.2z"/>
	<g>
		<path class="st2" d="M143.7,99.7l17.7,9.3c0,0,0.1,0,0.1,0c26.6,14.8,30.8,20.4,29,25.2c-1,2.8-3.8,3.8-7.8,3.8
			c-2.8,0-6.3-0.5-10.3-1.3c-0.1,0-0.1,0-0.2,0C94.8,116.8,32.5,76.2,31.9,75.8c0,0-0.1,0-0.1-0.1c-8-5.6-12.8-10.3-10.6-14.8
			c2.2-4.5,9.2-5.4,38.2,3.8l8,2.7l-3.6,6.7l-6.7-2.2c-15.2-4.8-22.9-6.2-26.7-6.6c1.2,1.1,3,2.5,5.6,4.3c2,1.3,62.7,40.5,138,59.8
			c3.1,0.6,5.4,0.9,7,1.1c-2.9-2.5-9.2-7.1-23.1-14.8l-7.7-4L143.7,99.7z"/>
	</g>
	<g>
		<path class="st3" d="M49.9,99.8L32.2,109c0,0-0.1,0-0.1,0c-26.6,14.8-30.8,20.4-29,25.2c1,2.8,3.8,3.8,7.8,3.8
			c2.8,0,6.3-0.5,10.3-1.3c0.1,0,0.1,0,0.2,0c77.4-19.8,139.7-60.4,140.4-60.8c0,0,0.1,0,0.1-0.1c8-5.6,12.8-10.3,10.6-14.8
			c-2.2-4.5-9.2-5.4-38.2,3.8l-8,2.7l3.6,6.7l6.7-2.2c15.2-4.8,22.9-6.2,26.7-6.6c-1.2,1.1-3,2.5-5.6,4.3c-2,1.3-62.7,40.5-138,59.8
			c-3.1,0.6-5.4,0.9-7,1.1c2.9-2.5,9.2-7.1,23.1-14.8l7.7-4L49.9,99.8z"/>
	</g>
	<g>
		<g>
			<path class="st2" d="M102.1,47.6c-4,0-7.2,3.3-7.2,7.3s3.2,7.3,7.2,7.3c4,0,7.2-3.3,7.2-7.3S106.1,47.6,102.1,47.6z"/>
		</g>
	</g>
	<g>
		<g>
			<path class="st3" d="M106.6,1.9c-3,0-5.4,2.5-5.4,5.5s2.4,5.5,5.4,5.5c3,0,5.4-2.5,5.4-5.5S109.6,1.9,106.6,1.9z"/>
		</g>
	</g>
	<g>
		<g>
			<path class="st3" d="M85.7,66.7c-4.7,1.4-7.3,6.4-5.9,11.1c1.4,4.7,6.3,7.5,11,6.1c4.7-1.4,7.3-6.4,5.9-11.1
				C95.3,68,90.4,65.3,85.7,66.7z"/>
		</g>
	</g>
	<g>
		<g>
			<path class="st1" d="M92.6,10.8c-5.9,0-10.6,4.9-10.6,10.8c0,6,4.8,10.8,10.6,10.8c5.9,0,10.6-4.9,10.6-10.8
				C103.2,15.6,98.5,10.8,92.6,10.8z"/>
		</g>
	</g>
	<g>
		<g>
			<path class="st1" d="M109,76.3c-3,0.9-4.7,4.1-3.8,7.2c0.9,3.1,4.1,4.8,7.1,3.9c3-0.9,4.7-4.1,3.8-7.2
				C115.2,77.2,112,75.4,109,76.3z"/>
		</g>
	</g>
</g>
</svg>
