<?xml version="1.0" encoding="utf-8"?>
<!-- Generator: Adobe Illustrator 22.0.1, SVG Export Plug-In . SVG Version: 6.00 Build 0)  -->
<svg version="1.1" id="Calque_1" xmlns="http://www.w3.org/2000/svg" xmlns:xlink="http://www.w3.org/1999/xlink" x="0px" y="0px"
	 viewBox="0 0 225.9 155.9" style="enable-background:new 0 0 225.9 155.9;" xml:space="preserve">
<style type="text/css">
	.st0{fill:#FFFFFF;}
	.st1{fill:#5872BA;}
	.st2{fill:#F99820;}
	.st3{fill:#EC5D50;}
</style>
<g>
	<g>
		<path class="st0" d="M33.3,150.3c0,0.5-0.2,1-0.6,1.4c-0.4,0.4-0.9,0.6-1.5,0.6c-0.6,0-1.1-0.2-1.5-0.6c-0.4-0.4-0.6-0.9-0.6-1.4
			v-23.4c0-0.6,0.2-1.1,0.7-1.6c0.5-0.5,1-0.7,1.7-0.7h10.5c0.6,0,1.1,0.2,1.5,0.6c0.4,0.4,0.6,0.9,0.6,1.4c0,0.6-0.2,1-0.6,1.4
			c-0.4,0.4-0.9,0.5-1.5,0.5h-8.6v7.7h7.9c0.5,0,1,0.2,1.4,0.6c0.4,0.4,0.7,0.8,0.7,1.4c0,0.6-0.2,1-0.6,1.4
			c-0.4,0.4-0.9,0.6-1.5,0.6h-7.9V150.3z"/>
		<path class="st0" d="M56.7,136.1c-0.4,0-0.8,0-1.1,0c-0.3,0-0.7,0-1,0.1c-0.3,0.1-0.7,0.1-1,0.3c-0.3,0.1-0.7,0.3-1.1,0.5
			c0,0.2,0,0.3,0.1,0.5c0,0.1,0,0.3,0,0.4v12.4c0,0.6-0.2,1-0.6,1.4c-0.4,0.4-0.9,0.6-1.5,0.6c-0.6,0-1.1-0.2-1.5-0.6
			c-0.4-0.4-0.6-0.8-0.6-1.4v-12.4c0-0.5,0-1-0.1-1.3c-0.1-0.3-0.2-0.6-0.4-0.9c-0.1-0.2-0.2-0.3-0.3-0.5c-0.1-0.2-0.1-0.3-0.1-0.6
			c0-0.5,0.2-1,0.6-1.3c0.4-0.3,0.9-0.5,1.4-0.5c0.4,0,0.7,0.1,1,0.3c0.3,0.2,0.6,0.5,0.8,0.8c0.9-0.5,1.8-0.9,2.7-1.2
			c0.9-0.3,1.7-0.4,2.4-0.4c1,0,1.7,0.2,2,0.5c0.4,0.4,0.6,0.8,0.6,1.4c0,0.6-0.2,1.1-0.6,1.5C57.8,135.9,57.3,136.1,56.7,136.1z"/>
		<path class="st0" d="M68.9,152.2c-1.3,0-2.4-0.2-3.4-0.5c-1-0.4-1.8-0.9-2.4-1.5c-0.7-0.6-1.2-1.4-1.5-2.2
			c-0.3-0.9-0.5-1.8-0.5-2.8V139c0-1,0.2-1.9,0.5-2.8c0.3-0.9,0.8-1.6,1.5-2.2c0.7-0.6,1.5-1.1,2.4-1.5c1-0.4,2.1-0.5,3.4-0.5
			c1.3,0,2.4,0.2,3.4,0.5c1,0.4,1.8,0.9,2.5,1.5c0.7,0.6,1.2,1.4,1.5,2.2c0.3,0.9,0.5,1.8,0.5,2.8v6.1c0,1-0.2,1.9-0.5,2.8
			c-0.3,0.9-0.8,1.6-1.5,2.2c-0.7,0.6-1.5,1.1-2.5,1.5C71.3,152,70.2,152.2,68.9,152.2z M68.9,148.5c1.2,0,2.1-0.3,2.7-0.9
			c0.6-0.6,0.9-1.4,0.9-2.5V139c0-1-0.3-1.8-0.9-2.4c-0.6-0.6-1.5-0.9-2.7-0.9c-1.2,0-2.1,0.3-2.7,0.9c-0.6,0.6-0.9,1.4-0.9,2.4v6.2
			c0,1.1,0.3,1.9,0.9,2.5C66.8,148.2,67.7,148.5,68.9,148.5z"/>
		<path class="st0" d="M85.5,150.2c0,0.5-0.2,1-0.5,1.4c-0.3,0.4-0.9,0.6-1.6,0.6c-0.7,0-1.2-0.2-1.6-0.6c-0.3-0.4-0.5-0.8-0.5-1.4
			v-12.4c0-0.4,0-0.7,0-1c0-0.2-0.1-0.4-0.1-0.6c-0.1-0.1-0.1-0.3-0.2-0.3c-0.1-0.1-0.1-0.2-0.2-0.3c-0.2-0.2-0.3-0.4-0.3-0.6
			c-0.1-0.2-0.1-0.3-0.1-0.6c0-0.5,0.2-0.9,0.6-1.3c0.4-0.3,0.9-0.5,1.5-0.5c0.7,0,1.3,0.4,1.8,1.1c0.9-0.6,1.8-1,2.7-1.3
			c0.9-0.3,1.8-0.4,2.7-0.4c2.2,0,3.9,0.7,5.1,2.1c1.1,1.4,1.7,3.2,1.7,5.4v10.7c0,0.5-0.2,1-0.5,1.4c-0.4,0.4-0.9,0.6-1.5,0.6
			c-0.7,0-1.2-0.2-1.5-0.6c-0.4-0.4-0.5-0.8-0.5-1.4v-10.7c0-1.2-0.3-2.2-0.8-2.9c-0.5-0.7-1.3-1-2.3-1c-1.1,0-2.3,0.4-3.6,1.2
			c0.1,0.4,0.1,0.7,0.1,0.9V150.2z"/>
		<path class="st0" d="M101.6,128.4c0-0.5,0.2-1,0.5-1.4c0.4-0.4,0.9-0.6,1.5-0.6c0.7,0,1.2,0.2,1.5,0.6c0.4,0.4,0.5,0.8,0.5,1.4
			v4.8h3.4c0.5,0,1,0.2,1.4,0.5c0.4,0.4,0.6,0.8,0.6,1.4c0,0.5-0.2,1-0.6,1.3c-0.4,0.4-0.9,0.5-1.4,0.5h-3.4v6.8
			c0,0.9,0,1.6,0.1,2.2c0.1,0.6,0.2,1.1,0.4,1.4c0.2,0.4,0.5,0.6,0.8,0.8c0.3,0.2,0.8,0.3,1.4,0.3c0.1,0,0.3,0,0.4,0
			c0.1,0,0.2,0,0.3,0c0.8,0,1.5,0.1,1.9,0.4c0.5,0.2,0.7,0.7,0.7,1.4c0,0.4-0.1,0.8-0.3,1.1c-0.2,0.3-0.4,0.5-0.7,0.6
			c-0.3,0.1-0.6,0.2-0.9,0.3c-0.3,0-0.7,0.1-1.1,0.1c-1.4,0-2.6-0.2-3.5-0.5c-0.9-0.3-1.6-0.9-2.2-1.5c-0.5-0.7-0.9-1.5-1.1-2.5
			c-0.2-1-0.3-2.2-0.3-3.5V128.4z"/>
		<path class="st0" d="M125.2,140.4c0,0.5-0.2,1-0.6,1.3c-0.4,0.4-0.9,0.5-1.4,0.5h-9.6c-0.6,0-1.1-0.2-1.5-0.5
			c-0.4-0.4-0.6-0.8-0.6-1.3c0-0.5,0.2-1,0.6-1.3c0.4-0.4,0.9-0.6,1.5-0.6h9.6c0.5,0,1,0.2,1.4,0.6
			C125,139.4,125.2,139.9,125.2,140.4z"/>
		<path class="st0" d="M144.4,149.9c0,0.6-0.2,1-0.6,1.4c-0.4,0.4-0.9,0.6-1.5,0.6h-10.9c-0.6,0-1.2-0.2-1.6-0.6
			c-0.5-0.4-0.7-0.9-0.7-1.6v-23.4c0-0.5,0.2-1,0.6-1.4c0.4-0.4,0.9-0.6,1.5-0.6c0.6,0,1.1,0.2,1.5,0.6c0.4,0.4,0.6,0.9,0.6,1.4V148
			h9c0.5,0,1,0.2,1.4,0.6C144.2,148.9,144.4,149.4,144.4,149.9z"/>
		<path class="st0" d="M157.6,139c0-2.3-1.2-3.4-3.6-3.4c-0.5,0-0.9,0.1-1.3,0.2c-0.3,0.1-0.7,0.2-1,0.3l-0.7,0.3
			c-0.3,0.1-0.6,0.2-1,0.2c-0.6,0-1-0.2-1.2-0.5c-0.2-0.4-0.4-0.7-0.4-1.2c0-0.5,0.2-1,0.5-1.3c0.3-0.4,0.8-0.7,1.4-0.9
			c0.6-0.2,1.2-0.4,1.9-0.5c0.7-0.1,1.5-0.2,2.2-0.2c2.6,0,4.5,0.7,5.7,2c1.1,1.3,1.7,3.3,1.7,5.9v7.9c0,0.5,0.1,0.8,0.3,0.9
			c0.2,0.1,0.4,0.2,0.7,0.3c0.8,0.2,1.2,0.6,1.2,1.4c0,1.1-0.8,1.6-2.3,1.6c-1.3,0-2.4-0.6-3.1-1.7c-1.4,1.2-3.2,1.9-5.3,1.9
			c-2.1,0-3.7-0.5-4.8-1.6c-1.1-1.1-1.6-2.5-1.6-4.3v-0.1c0-3.9,2.4-5.8,7.2-5.8c1.2,0,2.3,0.2,3.5,0.5V139z M154.2,143.4
			c-0.7,0-1.2,0.1-1.6,0.2c-0.4,0.1-0.8,0.3-1,0.6c-0.2,0.2-0.4,0.5-0.5,0.9c-0.1,0.3-0.1,0.7-0.1,1v0.1c0,0.8,0.2,1.4,0.6,1.8
			c0.4,0.4,1.2,0.6,2.3,0.6c0.7,0,1.3-0.1,1.9-0.3c0.6-0.2,1.2-0.6,1.8-1v-3.5c-0.6-0.1-1.1-0.2-1.7-0.3
			C155.2,143.4,154.7,143.4,154.2,143.4z"/>
		<path class="st0" d="M167.4,125.8c0-0.5,0.2-1,0.5-1.3c0.4-0.4,0.9-0.6,1.5-0.6c0.7,0,1.2,0.2,1.5,0.6c0.4,0.4,0.5,0.8,0.5,1.3
			v7.5c0.7-0.4,1.4-0.8,2.1-1c0.7-0.2,1.6-0.3,2.6-0.3c1.2,0,2.1,0.2,3,0.5c0.8,0.3,1.5,0.8,2,1.3c0.5,0.6,0.9,1.2,1.1,2
			c0.2,0.8,0.3,1.6,0.3,2.5v6.9c0,1-0.2,1.9-0.5,2.8c-0.3,0.9-0.8,1.6-1.4,2.2c-0.6,0.6-1.4,1.1-2.4,1.5c-1,0.4-2.1,0.5-3.3,0.5
			c-1.2,0-2.3-0.2-3.3-0.5c-1-0.3-1.8-0.8-2.4-1.3c-0.7-0.6-1.2-1.2-1.5-2c-0.3-0.8-0.5-1.6-0.5-2.5V125.8z M171.6,145.9
			c0,0.9,0.3,1.6,0.9,2.1c0.6,0.5,1.5,0.8,2.6,0.8c1.2,0,2.1-0.3,2.6-0.9c0.6-0.6,0.9-1.4,0.9-2.5v-7.2c0-0.9-0.3-1.6-0.8-2.1
			c-0.5-0.5-1.3-0.7-2.5-0.7c-1.5,0-2.8,0.5-3.8,1.5V145.9z"/>
	</g>
	<path class="st0" d="M192.2,153c-0.1,0.2,0,0.5,0.1,0.7c0.1,0.2,0.4,0.3,0.6,0.3h2.2c0.3,0,0.6-0.2,0.7-0.5l7.8-24.8
		c0.1-0.2,0-0.5-0.1-0.7c-0.1-0.2-0.4-0.3-0.6-0.3h-2.2c-0.3,0-0.6,0.2-0.7,0.5v0L192.2,153z"/>
	<path class="st0" d="M211.8,152.9c0.1,0.1,0.3,0.1,0.4,0l10.3-10.3c0.1-0.1,0.1-0.3,0-0.4l-10.3-10.3c-0.1-0.1-0.3-0.1-0.4,0
		l-1.9,1.9c-0.1,0.1-0.1,0.3,0,0.4l7.4,7.4c0.5,0.5,0.5,1.2,0,1.6l-7.4,7.5c-0.1,0.1-0.1,0.1-0.1,0.2c0,0.1,0,0.2,0.1,0.2
		L211.8,152.9z"/>
	<path class="st0" d="M13.6,128.6c-0.1-0.1-0.3-0.1-0.4,0L2.8,139c-0.1,0.1-0.1,0.3,0,0.4l10.3,10.3c0.1,0.1,0.3,0.1,0.4,0l1.9-1.9
		c0.1-0.1,0.1-0.3,0-0.4L8,140c-0.5-0.5-0.5-1.2,0-1.6l7.4-7.5c0.1-0.1,0.1-0.1,0.1-0.2c0-0.1,0-0.2-0.1-0.2L13.6,128.6z"/>
</g>
<g>
	<path class="st1" d="M141.2,101.2H84.2c-4.4,0-8.5-2.4-10.8-6.1c-2.3-3.8-2.4-8.5-0.3-12.4l21.7-40.1V19.1c0-3.7,3-6.6,6.7-6.6
		h22.4c3.7,0,6.7,3,6.7,6.6v23.6l21.7,40.1c2.1,3.9,2,8.6-0.3,12.4C149.8,98.9,145.6,101.2,141.2,101.2z M101.5,17.5
		c-0.9,0-1.6,0.7-1.6,1.5v24.9L77.6,85.1c-1.2,2.3-1.2,5.1,0.2,7.4c1.3,2.3,3.8,3.7,6.4,3.7h57.1c2.6,0,5.1-1.4,6.4-3.6
		c1.3-2.3,1.4-5.1,0.2-7.4l0,0l-22.3-41.2V19.1c0-0.8-0.7-1.5-1.6-1.5H101.5z"/>
	<path class="st0" d="M101.5,17.5c-0.9,0-1.6,0.7-1.6,1.5v24.9L77.6,85.1c-1.2,2.3-1.2,5.1,0.2,7.4c1.3,2.3,3.8,3.7,6.4,3.7h57.1
		c2.6,0,5.1-1.4,6.4-3.6c1.3-2.3,1.4-5.1,0.2-7.4l0,0l-22.3-41.2V19.1c0-0.8-0.7-1.5-1.6-1.5H101.5z"/>
	<path class="st1" d="M140.8,88.9c-0.8,1.3-2.2,2.1-3.7,2.1H88c-1.5,0-3-0.8-3.8-2.1c-0.8-1.3-0.8-3-0.1-4.3L90.1,74
		c0.8-1.5,2.5-2.4,4.2-2.2c7.8,0.7,16.6,7.4,24.5,7.1c4.2-0.2,8.1-1.7,11.8-3.7c2.1-1.2,4.7-0.4,5.9,1.7l4.3,7.7
		C141.6,85.9,141.5,87.6,140.8,88.9z"/>
	<g>
		<path class="st2" d="M144.5,68.3l12,6.3c0,0,0,0,0.1,0c18,10,20.9,13.8,19.7,17.1c-0.7,1.9-2.5,2.6-5.3,2.6c-1.9,0-4.3-0.4-7-0.9
			c0,0-0.1,0-0.1,0c-52.4-13.4-94.7-40.9-95.1-41.2c0,0,0,0-0.1,0c-5.4-3.8-8.7-7-7.2-10c1.5-3.1,6.3-3.7,25.9,2.6l5.4,1.8l-2.5,4.5
			l-4.5-1.5c-10.3-3.2-15.5-4.2-18.1-4.5c0.8,0.7,2,1.7,3.8,2.9c1.3,0.9,42.5,27.4,93.5,40.5c2.1,0.4,3.6,0.6,4.7,0.7
			c-2-1.7-6.3-4.8-15.7-10l-5.2-2.7L144.5,68.3z"/>
	</g>
	<g>
		<path class="st3" d="M80.9,68.3l-12,6.3c0,0,0,0-0.1,0c-18,10-20.9,13.8-19.7,17.1c0.7,1.9,2.5,2.6,5.3,2.6c1.9,0,4.3-0.4,7-0.9
			c0,0,0.1,0,0.1,0c52.4-13.4,94.7-40.9,95.1-41.2c0,0,0,0,0.1,0c5.4-3.8,8.7-7,7.2-10c-1.5-3.1-6.3-3.7-25.9,2.6l-5.4,1.8l2.5,4.5
			l4.5-1.5c10.3-3.2,15.5-4.2,18.1-4.5c-0.8,0.7-2,1.7-3.8,2.9c-1.3,0.9-42.5,27.4-93.5,40.5c-2.1,0.4-3.6,0.6-4.7,0.7
			c2-1.7,6.3-4.8,15.7-10l5.2-2.7L80.9,68.3z"/>
	</g>
	<g>
		<g>
			<path class="st2" d="M116.3,32.9c-2.7,0-4.9,2.2-4.9,4.9s2.2,4.9,4.9,4.9c2.7,0,4.9-2.2,4.9-4.9S119,32.9,116.3,32.9z"/>
		</g>
	</g>
	<g>
		<g>
			<path class="st3" d="M119.3,2c-2,0-3.6,1.7-3.6,3.7s1.6,3.7,3.6,3.7c2,0,3.6-1.7,3.6-3.7S121.3,2,119.3,2z"/>
		</g>
	</g>
	<g>
		<g>
			<path class="st3" d="M105.2,45.9c-3.2,0.9-5,4.3-4,7.5c1,3.2,4.3,5.1,7.5,4.1c3.2-0.9,5-4.3,4-7.5
				C111.7,46.8,108.3,45,105.2,45.9z"/>
		</g>
	</g>
	<g>
		<g>
			<path class="st1" d="M109.8,8c-4,0-7.2,3.3-7.2,7.3c0,4,3.2,7.3,7.2,7.3c4,0,7.2-3.3,7.2-7.3C117,11.3,113.8,8,109.8,8z"/>
		</g>
	</g>
	<g>
		<g>
			<path class="st1" d="M120.9,52.4c-2,0.6-3.2,2.8-2.6,4.9c0.6,2.1,2.8,3.3,4.8,2.7c2-0.6,3.2-2.8,2.6-4.9
				C125.1,53,123,51.8,120.9,52.4z"/>
		</g>
	</g>
</g>
</svg>
