<?xml version="1.0" standalone="no"?>
<!DOCTYPE svg PUBLIC "-//W3C//DTD SVG 20010904//EN"
 "http://www.w3.org/TR/2001/REC-SVG-20010904/DTD/svg10.dtd">
<svg version="1.0" xmlns="http://www.w3.org/2000/svg"
 width="260.000000pt" height="260.000000pt" viewBox="0 0 260.000000 260.000000"
 preserveAspectRatio="xMidYMid meet">
<metadata>
Created by potrace 1.11, written by Peter Selinger 2001-2013
</metadata>
<g transform="translate(0.000000,260.000000) scale(0.100000,-0.100000)"
fill="#000000" stroke="none">
<path d="M1372 2134 c-46 -32 -17 -114 40 -114 26 0 58 36 58 65 0 29 -32 65
-58 65 -10 0 -28 -7 -40 -16z"/>
<path d="M1212 2043 c-12 -2 -37 -19 -55 -37 -21 -22 -45 -35 -72 -39 -27 -4
-49 -16 -67 -37 l-28 -30 0 -220 c0 -185 -3 -225 -17 -255 -9 -19 -20 -35 -25
-35 -5 0 -75 20 -156 44 -158 47 -288 72 -324 60 -13 -3 -31 -13 -40 -22 -59
-51 24 -137 267 -277 55 -31 104 -61 109 -65 4 -4 -7 -34 -26 -66 -33 -57 -38
-61 -173 -132 -262 -139 -405 -247 -405 -306 0 -15 11 -33 28 -46 24 -20 35
-22 97 -16 39 3 112 17 163 31 51 14 96 24 101 21 5 -3 11 -19 14 -36 9 -41
83 -113 133 -128 59 -17 1059 -17 1118 0 53 16 121 84 137 136 l11 39 62 -18
c98 -30 222 -51 261 -43 21 4 42 16 51 29 44 68 -41 142 -375 325 -151 83
-155 86 -189 144 -29 49 -33 62 -21 68 299 173 389 241 389 297 0 55 -45 78
-133 67 -67 -9 -222 -48 -316 -81 -41 -14 -80 -25 -86 -25 -6 0 -19 16 -28 35
-14 30 -17 70 -17 255 l0 220 -29 32 c-28 32 -32 33 -120 36 -82 4 -91 6 -105
28 -25 37 -82 57 -134 47z m-82 -172 c0 -20 61 -69 94 -75 47 -9 102 15 124
54 17 30 18 30 92 28 l75 -3 3 -229 c1 -126 6 -234 11 -240 4 -6 36 -64 70
-128 l62 -117 -113 -57 c-62 -31 -146 -72 -186 -90 l-72 -33 -180 89 -180 90
21 42 c12 24 44 82 70 131 l49 87 0 223 c0 123 3 227 7 230 10 10 53 8 53 -2z
m-487 -482 c88 -22 247 -69 259 -76 12 -6 -40 -103 -55 -103 -17 0 -276 155
-302 180 -18 19 -18 20 -1 20 10 0 54 -9 99 -21z m1392 -5 c-37 -31 -279 -174
-294 -174 -6 0 -22 22 -36 50 l-25 49 98 30 c105 33 248 69 272 70 9 0 3 -10
-15 -25z m-993 -375 l142 -71 -28 -15 c-26 -14 -35 -13 -108 8 -73 21 -82 22
-106 8 -15 -8 -42 -43 -61 -76 -32 -59 -37 -63 -94 -83 -33 -11 -62 -18 -65
-15 -6 6 161 315 171 315 4 0 71 -32 149 -71z m748 -86 c47 -86 86 -160 88
-164 2 -5 -27 2 -65 15 -57 19 -72 29 -99 67 -39 56 -68 67 -118 44 -36 -17
-37 -17 -107 12 -39 16 -70 33 -70 38 0 8 257 142 276 144 6 1 48 -70 95 -156z
m-430 -61 c77 -35 61 -47 -37 -26 -37 8 -69 14 -70 14 -12 0 2 19 20 28 12 6
23 11 23 11 1 1 29 -12 64 -27z m813 -138 c53 -35 97 -66 97 -70 0 -10 -71 3
-177 33 l-94 26 -37 71 c-20 39 -39 75 -41 80 -6 14 140 -68 252 -140z m-1543
64 l-39 -72 -78 -23 c-97 -28 -183 -46 -189 -40 -10 9 313 206 338 207 4 0
-10 -32 -32 -72z m170 -113 c0 -8 9 -24 20 -35 19 -19 33 -20 474 -20 l455 0
20 26 c11 14 21 30 23 36 3 7 23 4 64 -9 52 -17 59 -23 56 -43 -2 -13 -11 -34
-19 -47 -35 -53 -31 -53 -598 -53 -578 0 -568 -1 -600 61 -24 45 -16 60 40 80
63 22 65 22 65 4z"/>
<path d="M1300 1590 c-31 -31 -27 -93 6 -119 45 -35 95 -26 120 21 19 37 10
82 -19 103 -31 21 -83 19 -107 -5z"/>
<path d="M1153 1390 c-13 -5 -32 -24 -43 -42 -62 -98 61 -206 149 -132 90 75
3 218 -106 174z"/>
<path d="M1406 1258 c-22 -31 -20 -64 4 -88 41 -41 110 -13 110 44 0 41 -26
66 -68 66 -21 0 -36 -7 -46 -22z"/>
</g>
</svg>
